<svg xmlns="http://www.w3.org/2000/svg" viewBox="0 0 26.587 26"><defs><style>.a{fill:#f44343;}</style></defs><path class="a" d="M9.43,4.607,7.523,2.7A13.9,13.9,0,0,0,2.03,13.167H4.7A11.261,11.261,0,0,1,9.43,4.607Zm16.52,8.56h2.667A13.985,13.985,0,0,0,23.123,2.7L21.23,4.607A11.327,11.327,0,0,1,25.95,13.167Zm-2.627.667c0-4.093-2.187-7.52-6-8.427V4.5a2,2,0,0,0-4,0v.907c-3.827.907-6,4.32-6,8.427V20.5L4.657,23.167V24.5H25.99V23.167L23.323,20.5Zm-8,14.667a2.336,2.336,0,0,0,.533-.053,2.705,2.705,0,0,0,1.92-1.573,2.677,2.677,0,0,0,.2-1.04H12.643a2.686,2.686,0,0,0,2.68,2.667Z" transform="translate(-2.03 -2.5)"/></svg>